<svg width="34" height="27" viewBox="0 0 34 27" fill="none" xmlns="http://www.w3.org/2000/svg">
<path d="M34 7.776V21.5156C34.0001 22.9165 33.4602 24.2643 32.491 25.2825C31.5218 26.3008 30.1968 26.9123 28.7878 26.9916L28.475 27H5.525C4.11377 27.0001 2.75599 26.4641 1.73021 25.5021C0.704424 24.54 0.0883977 23.2247 0.00850019 21.8261L0 21.5156V7.776L16.4084 16.308C16.5909 16.4029 16.7939 16.4525 17 16.4525C17.2061 16.4525 17.4091 16.4029 17.5916 16.308L34 7.776ZM5.525 3.98336e-08H28.475C29.8445 -0.000163712 31.1652 0.504555 32.1811 1.41626C33.1969 2.32797 33.8354 3.58169 33.9728 4.93425L17 13.7599L0.0272001 4.93425C0.15899 3.6354 0.753185 2.42581 1.70298 1.52291C2.65277 0.620002 3.89586 0.083003 5.2088 0.00843773L5.525 3.98336e-08Z" fill="white"/>
</svg>
